<svg width="149" height="3232" viewBox="0 0 149 3232" fill="none" xmlns="http://www.w3.org/2000/svg">
<g clip-path="url(#clip0_4454_95)">
<rect width="84.8587" height="84.8587" transform="matrix(0.81644 0.57743 -0.81644 0.57743 79.282 10)" stroke="#054575"/>
<rect width="84.8587" height="49" transform="matrix(0.81644 0.57743 0 1 10 59)" stroke="#054575"/>
<rect width="84.8587" height="49" transform="matrix(0.81644 -0.57743 0 1 79.282 108)" stroke="#054575"/>
<rect width="84.8587" height="84.8587" transform="matrix(0.81644 0.57743 -0.81644 0.57743 79.282 117)" stroke="#054575"/>
<rect width="84.8587" height="49" transform="matrix(0.81644 0.57743 0 1 10 166)" stroke="#054575"/>
<rect width="84.8587" height="49" transform="matrix(0.81644 -0.57743 0 1 79.282 215)" stroke="#054575"/>
<rect width="84.8587" height="84.8587" transform="matrix(0.81644 0.57743 -0.81644 0.57743 79.282 224)" stroke="#054575"/>
<rect width="84.8587" height="49" transform="matrix(0.81644 0.57743 0 1 10 273)" stroke="#054575"/>
<rect width="84.8587" height="49" transform="matrix(0.81644 -0.57743 0 1 79.282 322)" stroke="#054575"/>
<rect width="84.8587" height="84.8587" transform="matrix(0.81644 0.57743 -0.81644 0.57743 79.282 331)" stroke="#054575"/>
<rect width="84.8587" height="49" transform="matrix(0.81644 0.57743 0 1 10 380)" stroke="#054575"/>
<rect width="84.8587" height="49" transform="matrix(0.81644 -0.57743 0 1 79.282 429)" stroke="#054575"/>
<rect width="84.8587" height="84.8587" transform="matrix(0.81644 0.57743 -0.81644 0.57743 79.282 438)" stroke="#054575"/>
<rect width="84.8587" height="49" transform="matrix(0.81644 0.57743 0 1 10 487)" stroke="#054575"/>
<rect width="84.8587" height="49" transform="matrix(0.81644 -0.57743 0 1 79.282 536)" stroke="#054575"/>
<rect width="84.8587" height="84.8587" transform="matrix(0.81644 0.57743 -0.81644 0.57743 79.282 545)" stroke="#054575"/>
<rect width="84.8587" height="49" transform="matrix(0.81644 0.57743 0 1 10 594)" stroke="#054575"/>
<rect width="84.8587" height="49" transform="matrix(0.81644 -0.57743 0 1 79.282 643)" stroke="#054575"/>
<rect width="84.8587" height="84.8587" transform="matrix(0.81644 0.57743 -0.81644 0.57743 79.282 652)" stroke="#054575"/>
<rect width="84.8587" height="49" transform="matrix(0.81644 0.57743 0 1 10 701)" stroke="#054575"/>
<rect width="84.8587" height="49" transform="matrix(0.81644 -0.57743 0 1 79.282 750)" stroke="#054575"/>
<rect width="84.8587" height="84.8587" transform="matrix(0.81644 0.57743 -0.81644 0.57743 79.282 759)" stroke="#054575"/>
<rect width="84.8587" height="49" transform="matrix(0.81644 0.57743 0 1 10 808)" stroke="#054575"/>
<rect width="84.8587" height="49" transform="matrix(0.81644 -0.57743 0 1 79.282 857)" stroke="#054575"/>
<rect width="84.8587" height="84.8587" transform="matrix(0.81644 0.57743 -0.81644 0.57743 79.282 866)" stroke="#054575"/>
<rect width="84.8587" height="49" transform="matrix(0.81644 0.57743 0 1 10 915)" stroke="#054575"/>
<rect width="84.8587" height="49" transform="matrix(0.81644 -0.57743 0 1 79.282 964)" stroke="#054575"/>
<rect width="84.8587" height="84.8587" transform="matrix(0.81644 0.57743 -0.81644 0.57743 79.282 973)" stroke="#054575"/>
<rect width="84.8587" height="49" transform="matrix(0.81644 0.57743 0 1 10 1022)" stroke="#054575"/>
<rect width="84.8587" height="49" transform="matrix(0.81644 -0.57743 0 1 79.282 1071)" stroke="#054575"/>
<rect width="84.8587" height="84.8587" transform="matrix(0.81644 0.57743 -0.81644 0.57743 79.282 1080)" stroke="#054575"/>
<rect width="84.8587" height="49" transform="matrix(0.81644 0.57743 0 1 10 1129)" stroke="#054575"/>
<rect width="84.8587" height="49" transform="matrix(0.81644 -0.57743 0 1 79.282 1178)" stroke="#054575"/>
<rect width="84.8587" height="84.8587" transform="matrix(0.81644 0.57743 -0.81644 0.57743 79.282 1187)" stroke="#054575"/>
<rect width="84.8587" height="49" transform="matrix(0.81644 0.57743 0 1 10 1236)" stroke="#054575"/>
<rect width="84.8587" height="49" transform="matrix(0.81644 -0.57743 0 1 79.282 1285)" stroke="#054575"/>
<rect width="84.8587" height="84.8587" transform="matrix(0.81644 0.57743 -0.81644 0.57743 79.282 1294)" stroke="#054575"/>
<rect width="84.8587" height="49" transform="matrix(0.81644 0.57743 0 1 10 1343)" stroke="#054575"/>
<rect width="84.8587" height="49" transform="matrix(0.81644 -0.57743 0 1 79.282 1392)" stroke="#054575"/>
<rect width="84.8587" height="84.8587" transform="matrix(0.81644 0.57743 -0.81644 0.57743 79.282 1401)" stroke="#054575"/>
<rect width="84.8587" height="49" transform="matrix(0.81644 0.57743 0 1 10 1450)" stroke="#054575"/>
<rect width="84.8587" height="49" transform="matrix(0.81644 -0.57743 0 1 79.282 1499)" stroke="#054575"/>
<rect width="84.8587" height="84.8587" transform="matrix(0.81644 0.57743 -0.81644 0.57743 79.282 1508)" stroke="#054575"/>
<rect width="84.8587" height="49" transform="matrix(0.81644 0.57743 0 1 10 1557)" stroke="#054575"/>
<rect width="84.8587" height="49" transform="matrix(0.81644 -0.57743 0 1 79.282 1606)" stroke="#054575"/>
<rect width="84.8587" height="84.8587" transform="matrix(0.81644 0.57743 -0.81644 0.57743 79.282 1615)" stroke="#054575"/>
<rect width="84.8587" height="49" transform="matrix(0.81644 0.57743 0 1 10 1664)" stroke="#054575"/>
<rect width="84.8587" height="49" transform="matrix(0.81644 -0.57743 0 1 79.282 1713)" stroke="#054575"/>
<rect width="84.8587" height="84.8587" transform="matrix(0.81644 0.57743 -0.81644 0.57743 79.282 1722)" stroke="#054575"/>
<rect width="84.8587" height="49" transform="matrix(0.81644 0.57743 0 1 10 1771)" stroke="#054575"/>
<rect width="84.8587" height="49" transform="matrix(0.81644 -0.57743 0 1 79.282 1820)" stroke="#054575"/>
<rect width="84.8587" height="84.8587" transform="matrix(0.81644 0.57743 -0.81644 0.57743 79.282 1829)" stroke="#054575"/>
<rect width="84.8587" height="49" transform="matrix(0.81644 0.57743 0 1 10 1878)" stroke="#054575"/>
<rect width="84.8587" height="49" transform="matrix(0.81644 -0.57743 0 1 79.282 1927)" stroke="#054575"/>
<rect width="84.8587" height="84.8587" transform="matrix(0.81644 0.57743 -0.81644 0.57743 79.282 1936)" stroke="#054575"/>
<rect width="84.8587" height="49" transform="matrix(0.81644 0.57743 0 1 10 1985)" stroke="#054575"/>
<rect width="84.8587" height="49" transform="matrix(0.81644 -0.57743 0 1 79.282 2034)" stroke="#054575"/>
<rect width="84.8587" height="84.8587" transform="matrix(0.81644 0.57743 -0.81644 0.57743 79.282 2043)" stroke="#054575"/>
<rect width="84.8587" height="49" transform="matrix(0.81644 0.57743 0 1 10 2092)" stroke="#054575"/>
<rect width="84.8587" height="49" transform="matrix(0.81644 -0.57743 0 1 79.282 2141)" stroke="#054575"/>
<rect width="84.8587" height="84.8587" transform="matrix(0.81644 0.57743 -0.81644 0.57743 79.282 2150)" stroke="#054575"/>
<rect width="84.8587" height="49" transform="matrix(0.81644 0.57743 0 1 10 2199)" stroke="#054575"/>
<rect width="84.8587" height="49" transform="matrix(0.81644 -0.57743 0 1 79.282 2248)" stroke="#054575"/>
<rect width="84.8587" height="84.8587" transform="matrix(0.81644 0.57743 -0.81644 0.57743 79.282 2257)" stroke="#054575"/>
<rect width="84.8587" height="49" transform="matrix(0.81644 0.57743 0 1 10 2306)" stroke="#054575"/>
<rect width="84.8587" height="49" transform="matrix(0.81644 -0.57743 0 1 79.282 2355)" stroke="#054575"/>
<rect width="84.8587" height="84.8587" transform="matrix(0.81644 0.57743 -0.81644 0.57743 79.282 2364)" stroke="#054575"/>
<rect width="84.8587" height="49" transform="matrix(0.81644 0.57743 0 1 10 2413)" stroke="#054575"/>
<rect width="84.8587" height="49" transform="matrix(0.81644 -0.57743 0 1 79.282 2462)" stroke="#054575"/>
<rect width="84.8587" height="84.8587" transform="matrix(0.81644 0.57743 -0.81644 0.57743 79.282 2471)" stroke="#054575"/>
<rect width="84.8587" height="49" transform="matrix(0.81644 0.57743 0 1 10 2520)" stroke="#054575"/>
<rect width="84.8587" height="49" transform="matrix(0.81644 -0.57743 0 1 79.282 2569)" stroke="#054575"/>
<rect width="84.8587" height="84.8587" transform="matrix(0.81644 0.57743 -0.81644 0.57743 79.282 2578)" stroke="#054575"/>
<rect width="84.8587" height="49" transform="matrix(0.81644 0.57743 0 1 10 2627)" stroke="#054575"/>
<rect width="84.8587" height="49" transform="matrix(0.81644 -0.57743 0 1 79.282 2676)" stroke="#054575"/>
<rect width="84.8587" height="84.8587" transform="matrix(0.81644 0.57743 -0.81644 0.57743 79.282 2685)" stroke="#054575"/>
<rect width="84.8587" height="49" transform="matrix(0.81644 0.57743 0 1 10 2734)" stroke="#054575"/>
<rect width="84.8587" height="49" transform="matrix(0.81644 -0.57743 0 1 79.282 2783)" stroke="#054575"/>
<rect width="84.8587" height="84.8587" transform="matrix(0.81644 0.57743 -0.81644 0.57743 79.282 2792)" stroke="#054575"/>
<rect width="84.8587" height="49" transform="matrix(0.81644 0.57743 0 1 10 2841)" stroke="#054575"/>
<rect width="84.8587" height="49" transform="matrix(0.81644 -0.57743 0 1 79.282 2890)" stroke="#054575"/>
<rect width="84.8587" height="84.8587" transform="matrix(0.81644 0.57743 -0.81644 0.57743 79.282 2899)" stroke="#054575"/>
<rect width="84.8587" height="49" transform="matrix(0.81644 0.57743 0 1 10 2948)" stroke="#054575"/>
<rect width="84.8587" height="49" transform="matrix(0.81644 -0.57743 0 1 79.282 2997)" stroke="#054575"/>
<rect width="84.8587" height="84.8587" transform="matrix(0.81644 0.57743 -0.81644 0.57743 79.282 3006)" stroke="#054575"/>
<rect width="84.8587" height="49" transform="matrix(0.81644 0.57743 0 1 10 3055)" stroke="#054575"/>
<rect width="84.8587" height="49" transform="matrix(0.81644 -0.57743 0 1 79.282 3104)" stroke="#054575"/>
<rect width="84.8587" height="84.8587" transform="matrix(0.81644 0.57743 -0.81644 0.57743 79.282 3113)" stroke="#054575"/>
<rect width="84.8587" height="49" transform="matrix(0.81644 0.57743 0 1 10 3162)" stroke="#054575"/>
<rect width="84.8587" height="49" transform="matrix(0.81644 -0.57743 0 1 79.282 3211)" stroke="#054575"/>
</g>
<defs>
<clipPath id="clip0_4454_95">
<rect width="149" height="3232" fill="white"/>
</clipPath>
</defs>
</svg>
