<svg width="48" height="48" viewBox="0 0 48 48" fill="none" xmlns="http://www.w3.org/2000/svg">
<path d="M0 8C0 3.58172 3.58172 0 8 0H40C44.4183 0 48 3.58172 48 8V40C48 44.4183 44.4183 48 40 48H8C3.58172 48 0 44.4183 0 40V8Z" fill="#009BF8"/>
<path d="M12.2642 31V16.4545H15.3395V28.4645H21.5753V31H12.2642ZM28.7681 31H23.6119V16.4545H28.8107C30.2738 16.4545 31.5333 16.7457 32.5891 17.3281C33.645 17.9058 34.457 18.7367 35.0252 19.821C35.5981 20.9053 35.8846 22.2027 35.8846 23.7131C35.8846 25.2282 35.5981 26.5303 35.0252 27.6193C34.457 28.7083 33.6403 29.544 32.5749 30.1264C31.5143 30.7088 30.2454 31 28.7681 31ZM26.6871 28.3651H28.6403C29.5494 28.3651 30.314 28.2041 30.9343 27.8821C31.5593 27.5554 32.0281 27.0511 32.3406 26.3693C32.6578 25.6828 32.8164 24.7973 32.8164 23.7131C32.8164 22.6383 32.6578 21.7599 32.3406 21.0781C32.0281 20.3963 31.5617 19.8944 30.9414 19.5724C30.3211 19.2505 29.5565 19.0895 28.6474 19.0895H26.6871V28.3651Z" fill="#EFF8FF"/>
</svg>
