<svg width="1280" height="304" viewBox="0 0 1280 304" fill="none" xmlns="http://www.w3.org/2000/svg">
<path fill-rule="evenodd" clip-rule="evenodd" d="M0 265.673L30 226.673C61 188.673 122 111.673 183 79.6734C244 47.6734 305 60.6734 366 60.6734C427 60.6734 488 47.6734 549 34.6734C610 21.6734 670 9.6734 731 2.6734C792 -3.3266 853 -3.3266 914 47.6734C975 98.6734 1036 201.673 1097 245.673C1158 290.673 1219 277.673 1250 271.673L1280 265.673V303.673H1250C1219 303.673 1158 303.673 1097 303.673C1036 303.673 975 303.673 914 303.673C853 303.673 792 303.673 731 303.673C670 303.673 610 303.673 549 303.673C488 303.673 427 303.673 366 303.673C305 303.673 244 303.673 183 303.673C122 303.673 61 303.673 30 303.673H0V265.673Z" fill="#004250"/>
</svg>
