<svg width="1280" height="346" viewBox="0 0 1280 346" fill="none" xmlns="http://www.w3.org/2000/svg">
<path fill-rule="evenodd" clip-rule="evenodd" d="M0 0L30 39C61 77 122 154 183 173C244 192 305 154 366 122C427 90 488 64 549 90C610 116 670 192 731 192C792 192 853 116 914 103C975 90 1036 141 1097 135C1158 128 1219 64 1250 32L1280 0V346H1250C1219 346 1158 346 1097 346C1036 346 975 346 914 346C853 346 792 346 731 346C670 346 610 346 549 346C488 346 427 346 366 346C305 346 244 346 183 346C122 346 61 346 30 346H0V0Z" fill="#004250"/>
</svg>
