<svg width="80" height="80" viewBox="0 0 80 80" fill="none" xmlns="http://www.w3.org/2000/svg">
<g clip-path="url(#clip0_4437_1051)">
<mask id="mask0_4437_1051" style="mask-type:luminance" maskUnits="userSpaceOnUse" x="0" y="0" width="80" height="80">
<path d="M0 0.098259H79.9017V80H0V0.098259Z" fill="white"/>
</mask>
<g mask="url(#mask0_4437_1051)">
<path d="M78.3964 36.4913L43.5095 1.60696C43.0316 1.12875 42.4641 0.749394 41.8396 0.490572C41.215 0.231751 40.5455 0.0985336 39.8695 0.0985336C39.1934 0.0985336 38.524 0.231751 37.8994 0.490572C37.2748 0.749394 36.7074 1.12875 36.2295 1.60696L28.9877 8.85217L38.1756 18.04C39.2557 17.6732 40.417 17.6159 41.5281 17.8747C42.6391 18.1334 43.6556 18.698 44.4625 19.5043C45.2739 20.3166 45.8403 21.3408 46.097 22.4598C46.3536 23.5788 46.2902 24.7475 45.9138 25.8322L54.7721 34.6878C55.857 34.311 57.0262 34.2475 58.1455 34.5047C59.2649 34.7618 60.2891 35.3292 61.1008 36.1417C61.6694 36.7102 62.1204 37.3851 62.4281 38.1279C62.7358 38.8707 62.8942 39.6669 62.8942 40.4709C62.8942 41.2749 62.7358 42.071 62.4281 42.8138C62.1204 43.5566 61.6694 44.2315 61.1008 44.8C59.9513 45.9483 58.393 46.5933 56.7682 46.5933C55.1434 46.5933 53.5851 45.9483 52.4356 44.8C51.5816 43.9447 50.9998 42.8559 50.7634 41.6706C50.527 40.4853 50.6465 39.2566 51.1069 38.1391L42.846 29.8809V51.6174C43.7179 52.0481 44.4747 52.6804 45.0536 53.4618C45.6325 54.2432 46.017 55.1513 46.175 56.1109C46.3331 57.0704 46.2603 58.0539 45.9627 58.9797C45.665 59.9055 45.1511 60.7471 44.4634 61.4348C43.8949 62.0034 43.22 62.4544 42.4772 62.7621C41.7344 63.0698 40.9383 63.2282 40.1343 63.2282C39.3302 63.2282 38.5341 63.0698 37.7913 62.7621C37.0485 62.4544 36.3736 62.0034 35.8051 61.4348C35.2364 60.8663 34.7853 60.1913 34.4775 59.4485C34.1697 58.7056 34.0113 57.9093 34.0113 57.1052C34.0113 56.3011 34.1697 55.5049 34.4775 54.762C34.7853 54.0191 35.2364 53.3441 35.8051 52.7757C36.378 52.2016 37.0589 51.7468 37.8086 51.4374V29.5009C37.062 29.1933 36.3835 28.7413 35.8121 28.1708C35.2407 27.6003 34.7877 26.9225 34.479 26.1764C34.1704 25.4303 34.0122 24.6305 34.0135 23.8231C34.0149 23.0156 34.1757 22.2164 34.4869 21.4713L25.4277 12.4104L1.50425 36.3278C0.540211 37.2938 -0.0012207 38.6027 -0.0012207 39.9674C-0.0012207 41.3321 0.540211 42.641 1.50425 43.607L36.3929 78.4957C37.3588 79.4594 38.6676 80.0007 40.0321 80.0007C41.3966 80.0007 42.7053 79.4594 43.6712 78.4957L78.3964 43.7704C79.3605 42.8045 79.9019 41.4956 79.9019 40.1309C79.9019 38.7662 79.3605 37.4572 78.3964 36.4913Z" fill="#F03C2E"/>
</g>
</g>
<defs>
<clipPath id="clip0_4437_1051">
<rect width="80" height="80" fill="white"/>
</clipPath>
</defs>
</svg>
