<svg width="145" height="3232" viewBox="0 0 145 3232" fill="none" xmlns="http://www.w3.org/2000/svg">
<g clip-path="url(#clip0_4454_94)">
<path d="M55.4391 74.1429L24.3057 33.9322L39.8724 54.0376L71.0058 94.2482L55.4391 74.1429Z" fill="#00538E" fill-opacity="0.25"/>
<rect width="57.735" height="57.735" transform="matrix(1.09844 -0.132569 0.539247 0.696469 24.3057 33.9322)" fill="#0061AC" fill-opacity="0.25"/>
<path d="M55.439 74.1429L118.857 66.4891L71.0057 94.2482L55.439 74.1429Z" fill="#054575" fill-opacity="0.25"/>
<rect width="56.4246" height="56.4246" transform="matrix(0.578719 0.672691 -1.097 0.0956944 87.7241 190.632)" fill="#0061AC" fill-opacity="0.25"/>
<rect width="56.4246" height="26.1483" transform="matrix(0.578719 0.672691 -0.559193 0.829038 25.8262 196.032)" fill="#00538E" fill-opacity="0.25"/>
<rect width="56.4246" height="26.1483" transform="matrix(1.097 -0.0956944 -0.559193 0.829038 58.4801 233.988)" fill="#054575" fill-opacity="0.25"/>
<path d="M55.4391 396.087L118.857 388.433L87.1483 392.26L23.7298 399.914L55.4391 396.087Z" fill="#054575" fill-opacity="0.25"/>
<rect width="57.735" height="57.735" transform="matrix(0.539247 0.696469 -1.09844 0.132569 87.724 348.223)" fill="#0061AC" fill-opacity="0.25"/>
<path d="M24.3057 355.876L55.4391 396.087L23.7299 399.914L24.3057 355.876Z" fill="#00538E" fill-opacity="0.25"/>
<path d="M110.786 564.753L79.6529 524.542L64.0862 504.437L95.2196 544.648L110.786 564.753Z" fill="#00538E" fill-opacity="0.25"/>
<path d="M47.3678 572.407L16.2344 532.196L64.0861 504.437L95.2195 544.648L47.3678 572.407Z" fill="#0061AC" fill-opacity="0.25"/>
<path d="M47.3679 572.407L110.786 564.753L95.2196 544.648L47.3679 572.407Z" fill="#054575" fill-opacity="0.25"/>
<rect width="57.735" height="57.735" transform="matrix(0.539247 0.696469 -1.09844 0.132569 87.724 664.964)" fill="#0061AC" fill-opacity="0.25"/>
<rect width="57.735" height="28.8675" transform="matrix(0.539247 0.696469 -0.559193 0.829038 24.3057 672.617)" fill="#00538E" fill-opacity="0.25"/>
<rect width="57.735" height="28.8675" transform="matrix(1.09844 -0.132569 -0.559193 0.829038 55.439 712.828)" fill="#054575" fill-opacity="0.25"/>
<path d="M55.4391 903.182L24.3057 862.971L39.8724 883.076L71.0058 923.287L55.4391 903.182Z" fill="#00538E" fill-opacity="0.25"/>
<rect width="57.735" height="57.735" transform="matrix(1.09844 -0.132569 0.539247 0.696469 24.3057 862.971)" fill="#0061AC" fill-opacity="0.25"/>
<path d="M55.439 903.182L118.857 895.528L71.0057 923.287L55.439 903.182Z" fill="#054575" fill-opacity="0.25"/>
<rect width="56.4246" height="56.4246" transform="matrix(0.578719 0.672691 -1.097 0.0956944 87.7241 1019.67)" fill="#0061AC" fill-opacity="0.25"/>
<rect width="56.4246" height="26.1483" transform="matrix(0.578719 0.672691 -0.559193 0.829038 25.8262 1025.07)" fill="#00538E" fill-opacity="0.25"/>
<rect width="56.4246" height="26.1483" transform="matrix(1.097 -0.0956944 -0.559193 0.829038 58.4801 1063.03)" fill="#054575" fill-opacity="0.25"/>
<path d="M55.4391 1225.13L118.857 1217.47L87.1483 1221.3L23.7298 1228.95L55.4391 1225.13Z" fill="#054575" fill-opacity="0.25"/>
<rect width="57.735" height="57.735" transform="matrix(0.539247 0.696469 -1.09844 0.132569 87.724 1177.26)" fill="#0061AC" fill-opacity="0.25"/>
<path d="M24.3057 1184.92L55.4391 1225.13L23.7299 1228.95L24.3057 1184.92Z" fill="#00538E" fill-opacity="0.25"/>
<path d="M110.786 1393.79L79.6529 1353.58L64.0862 1333.48L95.2196 1373.69L110.786 1393.79Z" fill="#00538E" fill-opacity="0.25"/>
<path d="M47.3678 1401.45L16.2344 1361.23L64.0861 1333.48L95.2195 1373.69L47.3678 1401.45Z" fill="#0061AC" fill-opacity="0.25"/>
<path d="M47.3679 1401.45L110.786 1393.79L95.2196 1373.69L47.3679 1401.45Z" fill="#054575" fill-opacity="0.25"/>
<rect width="57.735" height="57.735" transform="matrix(0.539247 0.696469 -1.09844 0.132569 87.724 1494)" fill="#0061AC" fill-opacity="0.25"/>
<rect width="57.735" height="28.8675" transform="matrix(0.539247 0.696469 -0.559193 0.829038 24.3057 1501.66)" fill="#00538E" fill-opacity="0.25"/>
<rect width="57.735" height="28.8675" transform="matrix(1.09844 -0.132569 -0.559193 0.829038 55.439 1541.87)" fill="#054575" fill-opacity="0.25"/>
<path d="M55.4391 1732.22L24.3057 1692.01L39.8724 1712.12L71.0058 1752.33L55.4391 1732.22Z" fill="#00538E" fill-opacity="0.25"/>
<rect width="57.735" height="57.735" transform="matrix(1.09844 -0.132569 0.539247 0.696469 24.3057 1692.01)" fill="#0061AC" fill-opacity="0.25"/>
<path d="M55.439 1732.22L118.857 1724.57L71.0057 1752.33L55.439 1732.22Z" fill="#054575" fill-opacity="0.25"/>
<rect width="56.4246" height="56.4246" transform="matrix(0.578719 0.672691 -1.097 0.0956944 87.7241 1848.71)" fill="#0061AC" fill-opacity="0.25"/>
<rect width="56.4246" height="26.1483" transform="matrix(0.578719 0.672691 -0.559193 0.829038 25.8262 1854.11)" fill="#00538E" fill-opacity="0.25"/>
<rect width="56.4246" height="26.1483" transform="matrix(1.097 -0.0956944 -0.559193 0.829038 58.4801 1892.07)" fill="#054575" fill-opacity="0.25"/>
<path d="M55.4391 2054.16L118.857 2046.51L87.1483 2050.34L23.7298 2057.99L55.4391 2054.16Z" fill="#054575" fill-opacity="0.25"/>
<rect width="57.735" height="57.735" transform="matrix(0.539247 0.696469 -1.09844 0.132569 87.724 2006.3)" fill="#0061AC" fill-opacity="0.25"/>
<path d="M24.3057 2013.95L55.4391 2054.16L23.7299 2057.99L24.3057 2013.95Z" fill="#00538E" fill-opacity="0.25"/>
<path d="M110.786 2222.83L79.6529 2182.62L64.0862 2162.51L95.2196 2202.73L110.786 2222.83Z" fill="#00538E" fill-opacity="0.25"/>
<path d="M47.3678 2230.48L16.2344 2190.27L64.0861 2162.51L95.2195 2202.73L47.3678 2230.48Z" fill="#0061AC" fill-opacity="0.25"/>
<path d="M47.3679 2230.48L110.786 2222.83L95.2196 2202.73L47.3679 2230.48Z" fill="#054575" fill-opacity="0.25"/>
<rect width="57.735" height="57.735" transform="matrix(0.539247 0.696469 -1.09844 0.132569 87.724 2323.04)" fill="#0061AC" fill-opacity="0.25"/>
<rect width="57.735" height="28.8675" transform="matrix(0.539247 0.696469 -0.559193 0.829038 24.3057 2330.69)" fill="#00538E" fill-opacity="0.25"/>
<rect width="57.735" height="28.8675" transform="matrix(1.09844 -0.132569 -0.559193 0.829038 55.439 2370.91)" fill="#054575" fill-opacity="0.25"/>
<path d="M55.4391 2561.26L24.3057 2521.05L39.8724 2541.15L71.0058 2581.36L55.4391 2561.26Z" fill="#00538E" fill-opacity="0.25"/>
<rect width="57.735" height="57.735" transform="matrix(1.09844 -0.132569 0.539247 0.696469 24.3057 2521.05)" fill="#0061AC" fill-opacity="0.25"/>
<path d="M55.439 2561.26L118.857 2553.61L71.0057 2581.36L55.439 2561.26Z" fill="#054575" fill-opacity="0.25"/>
<rect width="56.4246" height="56.4246" transform="matrix(0.578719 0.672691 -1.097 0.0956944 87.7241 2677.75)" fill="#0061AC" fill-opacity="0.25"/>
<rect width="56.4246" height="26.1483" transform="matrix(0.578719 0.672691 -0.559193 0.829038 25.8262 2683.15)" fill="#00538E" fill-opacity="0.25"/>
<rect width="56.4246" height="26.1483" transform="matrix(1.097 -0.0956944 -0.559193 0.829038 58.4801 2721.1)" fill="#054575" fill-opacity="0.25"/>
<path d="M55.4391 2883.2L118.857 2875.55L87.1483 2879.38L23.7298 2887.03L55.4391 2883.2Z" fill="#054575" fill-opacity="0.25"/>
<rect width="57.735" height="57.735" transform="matrix(0.539247 0.696469 -1.09844 0.132569 87.724 2835.34)" fill="#0061AC" fill-opacity="0.25"/>
<path d="M24.3057 2842.99L55.4391 2883.2L23.7299 2887.03L24.3057 2842.99Z" fill="#00538E" fill-opacity="0.25"/>
<path d="M110.786 3051.87L79.6529 3011.66L64.0862 2991.55L95.2196 3031.76L110.786 3051.87Z" fill="#00538E" fill-opacity="0.25"/>
<path d="M47.3678 3059.52L16.2344 3019.31L64.0861 2991.55L95.2195 3031.76L47.3678 3059.52Z" fill="#0061AC" fill-opacity="0.25"/>
<path d="M47.3679 3059.52L110.786 3051.87L95.2196 3031.76L47.3679 3059.52Z" fill="#054575" fill-opacity="0.25"/>
<rect width="57.735" height="57.735" transform="matrix(0.539247 0.696469 -1.09844 0.132569 87.724 3152.08)" fill="#0061AC" fill-opacity="0.25"/>
<rect width="57.735" height="28.8675" transform="matrix(0.539247 0.696469 -0.559193 0.829038 24.3057 3159.73)" fill="#00538E" fill-opacity="0.25"/>
<rect width="57.735" height="28.8675" transform="matrix(1.09844 -0.132569 -0.559193 0.829038 55.439 3199.94)" fill="#054575" fill-opacity="0.25"/>
</g>
<defs>
<clipPath id="clip0_4454_94">
<rect width="145" height="3232" fill="white"/>
</clipPath>
</defs>
</svg>
